<mxfile host="app.diagrams.net" agent="Mozilla/5.0 (Windows NT 10.0; Win64; x64) AppleWebKit/537.36 (KHTML, like Gecko) Chrome/128.0.0.0 YaBrowser/24.10.0.0 Safari/537.36" version="24.8.6">
  <diagram name="Страница — 1" id="lok2J7Q3SPJnj0PKkUWq">
    <mxGraphModel dx="2086" dy="682" grid="1" gridSize="10" guides="1" tooltips="1" connect="1" arrows="1" fold="1" page="1" pageScale="1" pageWidth="827" pageHeight="1169" math="0" shadow="0">
      <root>
        <mxCell id="0" />
        <mxCell id="1" parent="0" />
        <mxCell id="0CjZScON2FShfCgsA_2k-40" style="edgeStyle=none;shape=connector;rounded=0;orthogonalLoop=1;jettySize=auto;html=1;exitX=1;exitY=0.3333333333333333;exitDx=0;exitDy=0;exitPerimeter=0;entryX=0;entryY=0.5;entryDx=0;entryDy=0;strokeColor=default;strokeWidth=2;align=center;verticalAlign=bottom;fontFamily=Helvetica;fontSize=11;fontColor=default;labelBackgroundColor=none;startArrow=none;startFill=0;endArrow=none;endFill=0;endSize=8;" edge="1" parent="1" source="0CjZScON2FShfCgsA_2k-1" target="0CjZScON2FShfCgsA_2k-32">
          <mxGeometry relative="1" as="geometry" />
        </mxCell>
        <mxCell id="0CjZScON2FShfCgsA_2k-47" style="edgeStyle=none;shape=connector;rounded=0;orthogonalLoop=1;jettySize=auto;html=1;exitX=1;exitY=0.3333333333333333;exitDx=0;exitDy=0;exitPerimeter=0;entryX=0;entryY=0.5;entryDx=0;entryDy=0;strokeColor=default;strokeWidth=2;align=center;verticalAlign=bottom;fontFamily=Helvetica;fontSize=11;fontColor=default;labelBackgroundColor=none;startArrow=none;startFill=0;endArrow=none;endFill=0;endSize=8;" edge="1" parent="1" source="0CjZScON2FShfCgsA_2k-1" target="0CjZScON2FShfCgsA_2k-46">
          <mxGeometry relative="1" as="geometry" />
        </mxCell>
        <mxCell id="0CjZScON2FShfCgsA_2k-1" value="Пользователь" style="shape=umlActor;verticalLabelPosition=bottom;verticalAlign=top;html=1;" vertex="1" parent="1">
          <mxGeometry x="100" y="410" width="30" height="60" as="geometry" />
        </mxCell>
        <mxCell id="0CjZScON2FShfCgsA_2k-2" value="Настройка симуляции" style="ellipse;whiteSpace=wrap;html=1;" vertex="1" parent="1">
          <mxGeometry x="154" y="270" width="140" height="70" as="geometry" />
        </mxCell>
        <mxCell id="0CjZScON2FShfCgsA_2k-18" value="Выбор локации" style="ellipse;whiteSpace=wrap;html=1;fontFamily=Helvetica;fontSize=11;fontColor=default;labelBackgroundColor=none;" vertex="1" parent="1">
          <mxGeometry x="60" y="140" width="140" height="70" as="geometry" />
        </mxCell>
        <mxCell id="0CjZScON2FShfCgsA_2k-20" value="Выбор погоды" style="ellipse;whiteSpace=wrap;html=1;fontFamily=Helvetica;fontSize=11;fontColor=default;labelBackgroundColor=none;" vertex="1" parent="1">
          <mxGeometry x="250" y="140" width="140" height="70" as="geometry" />
        </mxCell>
        <mxCell id="0CjZScON2FShfCgsA_2k-21" value="&amp;lt;&amp;lt;include&amp;gt;&amp;gt;" style="html=1;verticalAlign=bottom;labelBackgroundColor=none;endArrow=open;endFill=0;dashed=1;rounded=0;strokeColor=default;strokeWidth=2;align=center;fontFamily=Helvetica;fontSize=11;fontColor=default;endSize=8;exitX=0.322;exitY=0.007;exitDx=0;exitDy=0;exitPerimeter=0;entryX=0.5;entryY=1;entryDx=0;entryDy=0;" edge="1" parent="1" source="0CjZScON2FShfCgsA_2k-2" target="0CjZScON2FShfCgsA_2k-18">
          <mxGeometry x="0.2333" y="38" width="160" relative="1" as="geometry">
            <mxPoint x="160" y="240" as="sourcePoint" />
            <mxPoint x="320" y="240" as="targetPoint" />
            <mxPoint as="offset" />
          </mxGeometry>
        </mxCell>
        <mxCell id="0CjZScON2FShfCgsA_2k-22" value="&amp;lt;&amp;lt;include&amp;gt;&amp;gt;" style="html=1;verticalAlign=bottom;labelBackgroundColor=none;endArrow=open;endFill=0;dashed=1;rounded=0;strokeColor=default;strokeWidth=2;align=center;fontFamily=Helvetica;fontSize=11;fontColor=default;endSize=8;exitX=0.686;exitY=0;exitDx=0;exitDy=0;entryX=0.5;entryY=1;entryDx=0;entryDy=0;curved=0;exitPerimeter=0;" edge="1" parent="1" source="0CjZScON2FShfCgsA_2k-2" target="0CjZScON2FShfCgsA_2k-20">
          <mxGeometry x="0.2727" y="-46" width="160" relative="1" as="geometry">
            <mxPoint x="409" y="257" as="sourcePoint" />
            <mxPoint x="240" y="180" as="targetPoint" />
            <mxPoint as="offset" />
          </mxGeometry>
        </mxCell>
        <mxCell id="0CjZScON2FShfCgsA_2k-23" value="Выход из симулятора" style="ellipse;whiteSpace=wrap;html=1;" vertex="1" parent="1">
          <mxGeometry x="180" y="600" width="140" height="70" as="geometry" />
        </mxCell>
        <mxCell id="0CjZScON2FShfCgsA_2k-24" value="" style="endArrow=none;startArrow=none;endFill=0;startFill=0;endSize=8;html=1;verticalAlign=bottom;labelBackgroundColor=none;strokeWidth=2;rounded=0;strokeColor=default;align=center;fontFamily=Helvetica;fontSize=11;fontColor=default;entryX=0.285;entryY=0.11;entryDx=0;entryDy=0;entryPerimeter=0;exitX=1;exitY=0.3333333333333333;exitDx=0;exitDy=0;exitPerimeter=0;" edge="1" parent="1" source="0CjZScON2FShfCgsA_2k-1" target="0CjZScON2FShfCgsA_2k-23">
          <mxGeometry width="160" relative="1" as="geometry">
            <mxPoint x="140" y="350" as="sourcePoint" />
            <mxPoint x="303" y="258" as="targetPoint" />
          </mxGeometry>
        </mxCell>
        <mxCell id="0CjZScON2FShfCgsA_2k-26" value="Запуск симуляции" style="ellipse;whiteSpace=wrap;html=1;" vertex="1" parent="1">
          <mxGeometry x="-70" y="275" width="140" height="60" as="geometry" />
        </mxCell>
        <mxCell id="0CjZScON2FShfCgsA_2k-30" value="&amp;lt;&amp;lt;include&amp;gt;&amp;gt;" style="html=1;verticalAlign=bottom;labelBackgroundColor=none;endArrow=open;endFill=0;dashed=1;rounded=0;strokeColor=default;strokeWidth=2;align=center;fontFamily=Helvetica;fontSize=11;fontColor=default;endSize=8;entryX=0;entryY=0.5;entryDx=0;entryDy=0;exitX=1;exitY=0.5;exitDx=0;exitDy=0;" edge="1" parent="1" source="0CjZScON2FShfCgsA_2k-26" target="0CjZScON2FShfCgsA_2k-2">
          <mxGeometry x="-0.422" y="18" width="160" relative="1" as="geometry">
            <mxPoint x="70" y="350" as="sourcePoint" />
            <mxPoint x="230" y="350" as="targetPoint" />
            <mxPoint as="offset" />
          </mxGeometry>
        </mxCell>
        <mxCell id="0CjZScON2FShfCgsA_2k-32" value="Настройка симулятора" style="ellipse;whiteSpace=wrap;html=1;" vertex="1" parent="1">
          <mxGeometry x="260" y="470" width="140" height="70" as="geometry" />
        </mxCell>
        <mxCell id="0CjZScON2FShfCgsA_2k-45" style="edgeStyle=none;shape=connector;rounded=0;orthogonalLoop=1;jettySize=auto;html=1;exitX=0.5;exitY=1;exitDx=0;exitDy=0;entryX=1;entryY=1;entryDx=0;entryDy=0;strokeColor=default;strokeWidth=2;align=center;verticalAlign=bottom;fontFamily=Helvetica;fontSize=11;fontColor=default;labelBackgroundColor=none;startArrow=none;startFill=0;endArrow=block;endFill=0;endSize=8;" edge="1" parent="1" source="0CjZScON2FShfCgsA_2k-33" target="0CjZScON2FShfCgsA_2k-32">
          <mxGeometry relative="1" as="geometry" />
        </mxCell>
        <mxCell id="0CjZScON2FShfCgsA_2k-33" value="Настройка управления" style="ellipse;whiteSpace=wrap;html=1;fontFamily=Helvetica;fontSize=11;fontColor=default;labelBackgroundColor=none;" vertex="1" parent="1">
          <mxGeometry x="350" y="570" width="140" height="70" as="geometry" />
        </mxCell>
        <mxCell id="0CjZScON2FShfCgsA_2k-44" style="edgeStyle=none;shape=connector;rounded=0;orthogonalLoop=1;jettySize=auto;html=1;exitX=0;exitY=0.5;exitDx=0;exitDy=0;strokeColor=default;strokeWidth=2;align=center;verticalAlign=bottom;fontFamily=Helvetica;fontSize=11;fontColor=default;labelBackgroundColor=none;startArrow=none;startFill=0;endArrow=block;endFill=0;endSize=8;" edge="1" parent="1" source="0CjZScON2FShfCgsA_2k-34" target="0CjZScON2FShfCgsA_2k-32">
          <mxGeometry relative="1" as="geometry" />
        </mxCell>
        <mxCell id="0CjZScON2FShfCgsA_2k-34" value="Настройка графики" style="ellipse;whiteSpace=wrap;html=1;fontFamily=Helvetica;fontSize=11;fontColor=default;labelBackgroundColor=none;" vertex="1" parent="1">
          <mxGeometry x="460" y="470" width="140" height="70" as="geometry" />
        </mxCell>
        <mxCell id="0CjZScON2FShfCgsA_2k-46" value="Управление&lt;br&gt;моделью&lt;div&gt;БПЛА&lt;/div&gt;" style="ellipse;whiteSpace=wrap;html=1;" vertex="1" parent="1">
          <mxGeometry x="250" y="380" width="140" height="70" as="geometry" />
        </mxCell>
        <mxCell id="0CjZScON2FShfCgsA_2k-49" style="edgeStyle=none;shape=connector;rounded=0;orthogonalLoop=1;jettySize=auto;html=1;exitX=1;exitY=0.3333333333333333;exitDx=0;exitDy=0;exitPerimeter=0;entryX=0.5;entryY=1;entryDx=0;entryDy=0;strokeColor=default;strokeWidth=2;align=center;verticalAlign=bottom;fontFamily=Helvetica;fontSize=11;fontColor=default;labelBackgroundColor=none;startArrow=none;startFill=0;endArrow=none;endFill=0;endSize=8;" edge="1" parent="1" source="0CjZScON2FShfCgsA_2k-1" target="0CjZScON2FShfCgsA_2k-2">
          <mxGeometry relative="1" as="geometry">
            <mxPoint x="90" y="335" as="sourcePoint" />
            <mxPoint x="220" y="410" as="targetPoint" />
          </mxGeometry>
        </mxCell>
      </root>
    </mxGraphModel>
  </diagram>
</mxfile>
